<?xml version="1.0" encoding="UTF-8" standalone="no"?>
<!-- Generator: Gravit.io -->

<svg
   xmlns:dc="http://purl.org/dc/elements/1.1/"
   xmlns:cc="http://creativecommons.org/ns#"
   xmlns:rdf="http://www.w3.org/1999/02/22-rdf-syntax-ns#"
   xmlns:svg="http://www.w3.org/2000/svg"
   xmlns="http://www.w3.org/2000/svg"
   xmlns:sodipodi="http://sodipodi.sourceforge.net/DTD/sodipodi-0.dtd"
   xmlns:inkscape="http://www.inkscape.org/namespaces/inkscape"
   style="isolation:isolate"
   viewBox="0 0 90 90"
   width="90"
   height="90"
   version="1.1"
   id="svg4296"
   sodipodi:docname="icon.svg"
   inkscape:version="0.92.3 (2405546, 2018-03-11)">
  <metadata
     id="metadata4300">
    <rdf:RDF>
      <cc:Work
         rdf:about="">
        <dc:format>image/svg+xml</dc:format>
        <dc:type
           rdf:resource="http://purl.org/dc/dcmitype/StillImage" />
      </cc:Work>
    </rdf:RDF>
  </metadata>
  <sodipodi:namedview
     pagecolor="#ffffff"
     bordercolor="#666666"
     borderopacity="1"
     objecttolerance="10"
     gridtolerance="10"
     guidetolerance="10"
     inkscape:pageopacity="0"
     inkscape:pageshadow="2"
     inkscape:window-width="1920"
     inkscape:window-height="1137"
     id="namedview4298"
     showgrid="false"
     inkscape:zoom="2.6222222"
     inkscape:cx="51.599301"
     inkscape:cy="37.847801"
     inkscape:window-x="1912"
     inkscape:window-y="-8"
     inkscape:window-maximized="1"
     inkscape:current-layer="g4294" />
  <defs
     id="defs4182">
    <clipPath
       id="_clipPath_XbBVA3a0OQrWqkdFPGW0m0stglUJkKFb">
      <rect
         width="90"
         height="90"
         id="rect4179" />
    </clipPath>
  </defs>
  <g
     clip-path="url(#_clipPath_XbBVA3a0OQrWqkdFPGW0m0stglUJkKFb)"
     id="g4294">
    <rect
       x="0"
       y="0"
       width="90"
       height="90"
       transform="matrix(1,0,0,1,0,0)"
       fill="none"
       id="rect4184" />
    <clipPath
       id="_clipPath_qjF4qNeQ8PMIfFzCMbK9Kw1mGJPeq9kv">
      <rect
         x="0"
         y="-2"
         width="90"
         height="90"
         transform="matrix(1,0,0,1,0,0)"
         fill="rgb(255,255,255)"
         id="rect4186" />
    </clipPath>
    <g
       clip-path="url(#_clipPath_qjF4qNeQ8PMIfFzCMbK9Kw1mGJPeq9kv)"
       id="g4192">
      <g
         id="Group">
        <rect
           x="-5"
           y="-2"
           width="90"
           height="90"
           transform="matrix(1,0,0,1,0,0)"
           fill="none"
           id="rect4189" />
      </g>
    </g>
    <rect
       x="2"
       y="0"
       width="90"
       height="90"
       transform="matrix(1,0,0,1,0,0)"
       fill="none"
       id="rect4194" />
    <clipPath
       id="_clipPath_EhkAgIrlLoFp1khSi11YWLZSiy6xdBwt">
      <rect
         x="-6"
         y="-4"
         width="90"
         height="90"
         transform="matrix(1,0,0,1,0,0)"
         fill="rgb(255,255,255)"
         id="rect4196" />
    </clipPath>
    <g
       clip-path="url(#_clipPath_EhkAgIrlLoFp1khSi11YWLZSiy6xdBwt)"
       id="g4235">
      <g
         id="g4233">
        <rect
           x="-6"
           y="-4"
           width="90"
           height="90"
           transform="matrix(1,0,0,1,0,0)"
           fill="none"
           id="rect4199" />
        <clipPath
           id="_clipPath_eG60TnKgK29hCm5ka7yXapq7lhVpmF38">
          <rect
             x="-6"
             y="-6"
             width="90"
             height="90"
             transform="matrix(1,0,0,1,0,0)"
             fill="rgb(255,255,255)"
             id="rect4201" />
        </clipPath>
        <g
           clip-path="url(#_clipPath_eG60TnKgK29hCm5ka7yXapq7lhVpmF38)"
           id="g4210">
          <g
             id="g4208">
            <g
               id="g4206">
              <rect
                 x="-11"
                 y="-6"
                 width="90"
                 height="90"
                 transform="matrix(1,0,0,1,0,0)"
                 fill="none"
                 id="rect4204" />
            </g>
          </g>
        </g>
        <clipPath
           id="_clipPath_Jeltv2TL1Oz2iMD78OZWsc5C9x3O6A3o">
          <rect
             x="-4"
             y="-4"
             width="90"
             height="90"
             transform="matrix(1,0,0,1,0,0)"
             fill="rgb(255,255,255)"
             id="rect4212" />
        </clipPath>
        <g
           clip-path="url(#_clipPath_Jeltv2TL1Oz2iMD78OZWsc5C9x3O6A3o)"
           id="g4231">
          <g
             id="g4229">
            <g
               id="g4227">
              <rect
                 x="-4"
                 y="-4"
                 width="90"
                 height="90"
                 transform="matrix(1,0,0,1,0,0)"
                 fill="none"
                 id="rect4215" />
              <g
                 id="file-producer">
                <path
                   d=" M 17.71 33.845 L 20.959 36.227 L 26.966 40.629 C 27.38 40.932 27.382 40.996 26.983 41.289 Q 22.521 44.567 18.054 47.841 C 17.96 47.942 17.84 48.004 17.713 48.015 C 17.603 47.865 17.713 47.736 17.753 47.611 C 18.237 46.069 18.529 44.45 18.619 42.806 C 18.656 42.308 18.51 42.222 18.133 42.224 C 14.952 42.239 11.77 42.224 8.589 42.245 C 8.158 42.245 8.002 42.114 8.052 41.598 C 8.112 40.992 7.837 40.198 8.162 39.82 C 8.46 39.472 9.116 39.725 9.614 39.724 Q 13.892 39.713 18.171 39.728 C 18.534 39.728 18.657 39.637 18.623 39.169 C 18.534 37.488 18.234 35.832 17.734 34.256 C 17.667 34.133 17.658 33.978 17.71 33.845 Z "
                   fill="rgb(0,124,192)"
                   id="path4217" />
                <path
                   d=" M 17.774 17.206 L 20.89 19.489 Q 23.875 21.677 26.858 23.867 C 27.351 24.23 27.351 24.23 26.858 24.595 Q 22.453 27.827 18.046 31.058 C 17.954 31.123 17.86 31.189 17.776 31.249 C 17.637 31.128 17.734 31.026 17.763 30.94 C 18.272 29.306 18.576 27.592 18.668 25.852 C 18.708 25.335 18.431 25.428 18.192 25.428 Q 13.466 25.428 8.74 25.428 C 7.959 25.428 8.072 25.544 8.062 24.631 C 8.058 24.276 8.087 23.916 8.055 23.565 C 8.012 23.107 8.171 23.014 8.529 23.015 C 11.726 23.031 14.924 23.015 18.121 23.036 C 18.578 23.036 18.697 22.915 18.649 22.353 C 18.521 20.603 18.227 18.877 17.774 17.206 L 17.774 17.206 Z "
                   fill="rgb(0,124,192)"
                   id="path4219" />
                <path
                   d=" M 17.78 50.686 L 21.741 53.583 Q 24.304 55.463 26.866 57.347 C 27.349 57.702 27.352 57.705 26.889 58.044 Q 22.444 61.307 17.997 64.566 C 17.919 64.624 17.837 64.674 17.655 64.794 C 17.928 63.95 18.151 63.084 18.322 62.203 C 18.478 61.303 18.56 60.393 18.656 59.483 C 18.711 58.976 18.561 58.89 18.182 58.895 C 15 58.909 11.817 58.889 8.636 58.917 C 8.152 58.921 7.993 58.768 8.055 58.204 C 8.114 57.656 7.861 56.937 8.158 56.59 C 8.432 56.269 9.025 56.502 9.477 56.5 C 12.377 56.492 15.277 56.486 18.176 56.508 C 18.61 56.511 18.69 56.371 18.651 55.871 C 18.526 54.109 18.234 52.369 17.78 50.686 L 17.78 50.686 Z "
                   fill="rgb(0,124,192)"
                   id="path4221" />
              </g>
              <g
                 id="ADLcons">
                <rect
                   x="25"
                   y="27.658"
                   width="58"
                   height="29.342"
                   transform="matrix(1,0,0,1,0,0)"
                   fill="none"
                   id="rect4224" />
              </g>
            </g>
          </g>
        </g>
      </g>
    </g>
    <clipPath
       id="_clipPath_unOOfrkNHznImy9tlzrCz8GzRwjSRNhj">
      <rect
         x="0"
         y="0"
         width="90"
         height="90"
         transform="matrix(1,0,0,1,0,0)"
         fill="rgb(255,255,255)"
         id="rect4237" />
    </clipPath>
    <text
       xml:space="preserve"
       style="font-style:normal;font-weight:normal;font-size:40px;line-height:1.25;font-family:sans-serif;letter-spacing:0px;word-spacing:0px;fill:#000000;fill-opacity:1;stroke:none"
       x="31.652542"
       y="49.95763"
       id="text4304"><tspan
         sodipodi:role="line"
         id="tspan4302"
         x="31.652542"
         y="49.95763"
         style="font-style:normal;font-variant:normal;font-weight:normal;font-stretch:normal;font-size:26.66666603px;font-family:Arial;-inkscape-font-specification:Arial">SAC</tspan></text>
  </g>
</svg>
